<svg width="21" height="21" viewBox="0 0 21 21" fill="none" xmlns="http://www.w3.org/2000/svg">
<path d="M6.98657 17.3862H14.0134C15.4307 17.3862 16.1624 16.6414 16.1624 15.2175V9.23218C16.1624 8.30933 16.0437 7.88745 15.4702 7.30078L12.0227 3.80054C11.4624 3.23364 11.001 3.10181 10.1704 3.10181H6.98657C5.57593 3.10181 4.83765 3.84668 4.83765 5.2771V15.2175C4.83765 16.6414 5.57593 17.3862 6.98657 17.3862ZM7.09863 16.0679C6.46582 16.0679 6.14941 15.7383 6.14941 15.1318V5.3562C6.14941 4.75635 6.46582 4.42017 7.10522 4.42017H9.90015V8.0061C9.90015 8.96191 10.3682 9.42334 11.3174 9.42334H14.8506V15.1318C14.8506 15.7383 14.5342 16.0679 13.8948 16.0679H7.09863ZM11.4426 8.26978C11.1658 8.26978 11.0471 8.15112 11.0471 7.88086V4.59155L14.6726 8.26978H11.4426Z" fill="white"/>
</svg>
