<svg width="13" height="13" viewBox="0 0 13 13" fill="none" xmlns="http://www.w3.org/2000/svg">
<path d="M6.49595 2.95251C6.85096 2.95251 7.19373 3.00964 7.51202 3.11166L7.83031 2.3445C7.41001 2.20168 6.96114 2.12415 6.49595 2.12415C6.03483 2.12415 5.58188 2.20168 5.16158 2.3445L5.47987 3.11166C5.80224 3.00964 6.14501 2.95251 6.49595 2.95251ZM9.49929 4.77248L10.2624 4.45827C9.85023 3.64622 9.18917 2.98516 8.37712 2.57302L8.06291 3.33609C8.67909 3.65438 9.181 4.1563 9.49929 4.77248ZM4.92898 3.33609L4.61477 2.5771C3.80681 2.98516 3.14166 3.6503 2.7336 4.45827L3.49668 4.77656C3.81497 4.16038 4.31689 3.65438 4.92898 3.33609ZM6.49187 9.07347C8.00986 9.07347 9.22997 7.85336 9.22589 6.33944C9.22589 4.82553 8.00578 3.60542 6.49187 3.60542C4.97387 3.60542 3.76192 4.82145 3.76192 6.33944C3.76192 7.85744 4.97795 9.07347 6.49187 9.07347ZM9.88695 6.33944C9.88695 6.69446 9.82983 7.03315 9.73189 7.35552L10.495 7.67381C10.6378 7.25351 10.7153 6.80464 10.7153 6.33944C10.7153 5.87425 10.6378 5.42538 10.495 5.00507L9.73189 5.32336C9.82983 5.64165 9.88695 5.98443 9.88695 6.33944ZM3.11718 6.33944C3.11718 5.98443 3.17431 5.64165 3.27224 5.32745L2.501 5.00507C2.36226 5.42538 2.28473 5.87425 2.28473 6.33944C2.28473 6.80464 2.36226 7.24942 2.50508 7.66973L3.27224 7.35144C3.17431 7.03315 3.11718 6.69446 3.11718 6.33944ZM8.06291 9.34279L8.37712 10.1059C9.18917 9.69373 9.85431 9.02858 10.2624 8.22062L9.50337 7.90641C9.18509 8.52258 8.67909 9.0245 8.06291 9.34279ZM3.50076 7.90641L2.7336 8.22062C3.14574 9.02858 3.80681 9.69373 4.61477 10.1018L4.92898 9.33871C4.31689 9.02042 3.81497 8.5185 3.50076 7.90641ZM6.50003 9.72229C6.14501 9.72229 5.80224 9.66924 5.47987 9.56723L5.16566 10.3344C5.58596 10.4772 6.03483 10.5547 6.50003 10.5547C6.96522 10.5547 7.41001 10.4772 7.83031 10.3344L7.51202 9.57131C7.18965 9.66924 6.85504 9.72229 6.50003 9.72229Z" fill="white" fill-opacity="0.6"/>
</svg>
