<svg width="15" height="15" viewBox="0 0 15 15" fill="none" xmlns="http://www.w3.org/2000/svg">
<path d="M11.0549 5.59628C11.0549 5.28552 10.8147 5.04539 10.5322 5.04539C10.245 5.04539 10.0143 5.29023 10.0143 5.58215V7.35252L10.0943 9.26414L9.33158 8.40721L4.85857 3.9342C4.74557 3.82591 4.61373 3.76941 4.4819 3.76941C4.19468 3.76941 3.94043 4.03308 3.94043 4.31088C3.94043 4.44271 4.00164 4.57455 4.10993 4.68755L8.57823 9.16056L9.43516 9.9139L7.43879 9.84799H5.74847C5.46125 9.84799 5.22112 10.0787 5.22112 10.3565C5.22112 10.639 5.44242 10.8791 5.76259 10.8791H10.4946C10.8336 10.8791 11.0502 10.6531 11.0502 10.3235L11.0549 5.59628Z" fill="white" fill-opacity="0.6"/>
</svg>
