<svg width="18" height="18" viewBox="0 0 18 18" fill="none" xmlns="http://www.w3.org/2000/svg">
<path d="M8.99435 14.62C12.198 14.62 14.8422 11.9757 14.8422 8.77776C14.8422 5.5798 12.1923 2.93555 8.9887 2.93555C5.79073 2.93555 3.15213 5.5798 3.15213 8.77776C3.15213 11.9757 5.79638 14.62 8.99435 14.62ZM8.99435 13.4561C6.40094 13.4561 4.32735 11.3712 4.32735 8.77776C4.32735 6.18436 6.40094 4.10512 8.9887 4.10512C11.5821 4.10512 13.667 6.18436 13.6726 8.77776C13.6783 11.3712 11.5877 13.4561 8.99435 13.4561ZM8.99435 8.58566C9.78536 8.59131 10.4238 7.91329 10.4238 7.02058C10.4238 6.18436 9.78536 5.4894 8.99435 5.4894C8.19768 5.4894 7.55922 6.18436 7.55922 7.02058C7.55922 7.91329 8.19768 8.58001 8.99435 8.58566ZM6.497 11.6028H11.486C11.729 11.6028 11.8533 11.4333 11.8533 11.2073C11.8533 10.5971 10.9493 9.02637 8.99435 9.02637C7.03376 9.02637 6.12974 10.5971 6.12974 11.2073C6.12974 11.4333 6.25404 11.6028 6.497 11.6028Z" fill="white" fill-opacity="0.4"/>
</svg>
