<svg width="18" height="18" viewBox="0 0 18 18" fill="none" xmlns="http://www.w3.org/2000/svg">
<path d="M8.99435 14.62C12.198 14.62 14.8422 11.9757 14.8422 8.77776C14.8422 5.5798 12.1923 2.93555 8.9887 2.93555C5.79073 2.93555 3.15213 5.5798 3.15213 8.77776C3.15213 11.9757 5.79638 14.62 8.99435 14.62ZM8.99435 13.4561C6.40094 13.4561 4.32735 11.3712 4.32735 8.77776C4.32735 6.18436 6.40094 4.10512 8.9887 4.10512C11.5821 4.10512 13.667 6.18436 13.6726 8.77776C13.6783 11.3712 11.5877 13.4561 8.99435 13.4561ZM6.14669 9.48968H8.9887C9.2486 9.48968 9.44635 9.29192 9.44635 9.03767V5.34249C9.44635 5.08824 9.2486 4.89049 8.9887 4.89049C8.74009 4.89049 8.54234 5.08824 8.54234 5.34249V8.58566H6.14669C5.89243 8.58566 5.69468 8.78341 5.69468 9.03767C5.69468 9.29192 5.89243 9.48968 6.14669 9.48968Z" fill="white" fill-opacity="0.4"/>
</svg>
