<svg width="13" height="13" viewBox="0 0 13 13" fill="none" xmlns="http://www.w3.org/2000/svg">
<path d="M6.79787 10.7873L10.7969 6.78423C11.1152 6.46186 11.1478 6.27415 11.1478 5.80896V4.2624C11.1478 3.80945 11.0417 3.65438 10.7112 3.32385L9.77673 2.38939C9.44212 2.05886 9.28705 1.95276 8.83818 1.95276H7.28754C6.82643 1.95276 6.63872 1.9854 6.32043 2.30777L2.31325 6.3068C1.70115 6.91889 1.69299 7.56771 2.31733 8.18389L4.92077 10.7873C5.54103 11.4035 6.18577 11.3994 6.79787 10.7873ZM6.27146 10.163C6.00214 10.4323 5.72058 10.4364 5.44309 10.1589L2.94166 7.66157C2.66418 7.38409 2.67234 7.09844 2.93758 6.8332L6.89988 2.87906C6.98149 2.79745 7.05903 2.74848 7.18961 2.74848H8.83002C8.95244 2.74848 9.03814 2.79337 9.11975 2.87498L10.2256 3.98084C10.3031 4.06245 10.348 4.14406 10.348 4.27056V5.91098C10.348 6.04564 10.3072 6.12317 10.2256 6.20478L6.27146 10.163ZM8.3281 5.35601C8.66272 5.35601 8.91572 5.09893 8.91572 4.7684C8.91572 4.44195 8.66272 4.18079 8.3281 4.18079C7.99757 4.18079 7.74457 4.44195 7.74457 4.7684C7.74457 5.09893 7.99757 5.35601 8.3281 5.35601Z" fill="white" fill-opacity="0.6"/>
</svg>
