<svg width="13" height="13" viewBox="0 0 13 13" fill="none" xmlns="http://www.w3.org/2000/svg">
<path d="M4.58209 10.3222H8.41789C9.05039 10.3222 9.36052 10.008 9.36052 9.32246V6.42113C9.36052 5.81311 9.11568 5.4989 8.61784 5.43361V4.48282C8.61784 2.93218 7.58544 2.18542 6.49999 2.18542C5.41454 2.18542 4.38214 2.93218 4.38214 4.48282V5.43361C3.8843 5.4989 3.63947 5.81311 3.63947 6.42113V9.32246C3.63947 10.008 3.94959 10.3222 4.58209 10.3222ZM5.16562 4.40937C5.16562 3.45858 5.76956 2.93626 6.49999 2.93626C7.22634 2.93626 7.83436 3.45858 7.83436 4.40937V5.42137H5.16562V4.40937ZM4.71267 9.58362C4.53312 9.58362 4.44335 9.49792 4.44335 9.28573V6.45785C4.44335 6.24158 4.53312 6.16404 4.71267 6.16404H8.29139C8.47094 6.16404 8.55663 6.24158 8.55663 6.45785V9.28573C8.55663 9.49792 8.47094 9.58362 8.29139 9.58362H4.71267Z" fill="white" fill-opacity="0.6"/>
</svg>
