<svg width="18" height="18" viewBox="0 0 18 18" fill="none" xmlns="http://www.w3.org/2000/svg">
<path d="M13.5879 4.22942C13.0003 3.64746 12.198 3.52881 11.164 3.52881H6.82472C5.80205 3.52881 4.99973 3.64746 4.41777 4.22942C3.83581 4.80573 3.72845 5.6024 3.72845 6.62507V10.9305C3.72845 11.9701 3.83581 12.7667 4.41777 13.3431C4.99973 13.925 5.80205 14.038 6.83602 14.038H11.164C12.198 14.038 13.0059 13.925 13.5879 13.3431C14.1642 12.7611 14.2716 11.9701 14.2716 10.9305V6.64202C14.2716 5.6024 14.1642 4.80573 13.5879 4.22942ZM13.1472 6.48382V11.0887C13.1472 11.6763 13.0737 12.2074 12.763 12.5181C12.4466 12.8345 11.9098 12.9136 11.3222 12.9136H6.68346C6.09585 12.9136 5.55344 12.8289 5.24268 12.5181C4.93193 12.2074 4.85283 11.6763 4.85283 11.0887V6.49512C4.85283 5.89621 4.93193 5.35944 5.24268 5.04869C5.55344 4.73793 6.09585 4.65883 6.69476 4.65883H11.3222C11.9098 4.65883 12.4466 4.73793 12.763 5.04869C13.0737 5.3651 13.1472 5.89621 13.1472 6.48382ZM10.7685 10.2581C11.051 10.2581 11.2318 10.049 11.2318 9.74393V7.11663C11.2318 6.72112 11.0114 6.54597 10.6555 6.54597H8.01689C7.70613 6.54597 7.50838 6.72677 7.50838 7.00928C7.50838 7.29743 7.71178 7.47824 8.02254 7.47824H8.97176L9.74017 7.38784L8.90961 8.1506L6.93207 10.1281C6.83602 10.2242 6.76822 10.3541 6.76822 10.4897C6.76822 10.7949 6.98292 10.9926 7.27108 10.9926C7.42363 10.9926 7.54793 10.9361 7.65528 10.8344L9.62717 8.86251L10.3786 8.04325L10.2995 8.85121V9.74958C10.2995 10.0603 10.4803 10.2581 10.7685 10.2581Z" fill="white" fill-opacity="0.6"/>
</svg>
