<svg width="13" height="13" viewBox="0 0 13 13" fill="none" xmlns="http://www.w3.org/2000/svg">
<path d="M7.05089 10.8486L10.2256 9.00821C10.5684 8.80826 10.7194 8.63688 10.7194 8.3798C10.7194 8.11864 10.5684 7.95133 10.2256 7.7473L9.67066 7.42493L10.2256 7.10256C10.5684 6.90261 10.7194 6.73122 10.7194 6.47414C10.7194 6.21706 10.5684 6.04567 10.2256 5.84572L9.56865 5.46214L10.2256 5.08264C10.5684 4.88269 10.7194 4.7113 10.7194 4.45422C10.7194 4.19306 10.5684 4.02576 10.2256 3.82173L7.05089 1.98136C6.8387 1.85894 6.6714 1.79773 6.50001 1.79773C6.32454 1.79773 6.15724 1.85894 5.94504 1.98136L2.77031 3.82173C2.42753 4.02576 2.27655 4.19306 2.27655 4.45422C2.27655 4.7113 2.42753 4.88269 2.77031 5.08264L3.42729 5.46622L2.77031 5.84572C2.42753 6.04567 2.27655 6.21706 2.27655 6.47414C2.27655 6.73122 2.42753 6.90261 2.77031 7.10256L3.32935 7.42493L2.77031 7.7473C2.42753 7.95133 2.27655 8.11864 2.27655 8.3798C2.27655 8.63688 2.42753 8.80826 2.77031 9.00821L5.94504 10.8486C6.15724 10.971 6.32454 11.0322 6.50001 11.0322C6.6714 11.0322 6.8387 10.971 7.05089 10.8486ZM6.50001 7.10664C6.6714 7.10664 6.8387 7.04951 7.05089 6.92301L8.77292 5.92733L9.67066 6.43333C9.68699 6.44557 9.69923 6.45374 9.69923 6.47414C9.69923 6.49454 9.68699 6.5027 9.67066 6.51495L6.66323 8.22473C6.60202 8.26146 6.55306 8.27778 6.50001 8.27778C6.44288 8.27778 6.39391 8.26146 6.3327 8.22473L3.32935 6.51495C3.30895 6.5027 3.30079 6.49454 3.30079 6.47414C3.30079 6.45374 3.30895 6.44557 3.32935 6.43333L4.22301 5.92325L5.94504 6.92301C6.15724 7.04951 6.32454 7.10664 6.50001 7.10664ZM6.3327 10.1304L3.32935 8.41652C3.30895 8.40836 3.30079 8.39612 3.30079 8.3798C3.30079 8.35939 3.30895 8.35123 3.32935 8.33899L4.12508 7.88604L5.94504 8.94292C6.15724 9.06942 6.32454 9.13063 6.50001 9.13063C6.6714 9.13063 6.8387 9.06942 7.05089 8.94292L8.87494 7.88604L9.67066 8.33899C9.68699 8.35123 9.69923 8.35939 9.69923 8.3798C9.69923 8.39612 9.68699 8.40836 9.67066 8.41652L6.66323 10.1304C6.60202 10.163 6.55306 10.1834 6.50001 10.1834C6.44288 10.1834 6.39391 10.163 6.3327 10.1304Z" fill="white" fill-opacity="0.6"/>
</svg>
