<svg width="13" height="13" viewBox="0 0 13 13" fill="none" xmlns="http://www.w3.org/2000/svg">
<path d="M9.7196 9.95491C9.85018 10.0814 10.0501 10.0896 10.1807 9.95491C10.3154 9.81617 10.3072 9.6203 10.1807 9.4938L3.25996 2.57712C3.13346 2.45062 2.92126 2.44654 2.79476 2.57712C2.67235 2.69954 2.67235 2.91174 2.79476 3.03416L9.7196 9.95491ZM6.50406 2.80972C5.78995 2.80972 5.14521 2.93214 4.54536 3.13209L5.20642 3.79315C5.61857 3.6789 6.04295 3.60952 6.50406 3.60952C9.09935 3.60952 11.1601 5.86612 11.1601 6.34355C11.1601 6.66592 10.5072 7.49429 9.4666 8.14719L10.0787 8.76337C11.36 7.92276 12.1068 6.82507 12.1068 6.34355C12.1068 5.50702 9.85427 2.80972 6.50406 2.80972ZM6.50406 9.88146C7.2549 9.88146 7.94453 9.75088 8.56886 9.53461L7.9078 8.87355C7.46709 9.00413 7.0019 9.08166 6.50406 9.08166C3.90062 9.08166 1.8399 6.91484 1.8399 6.34355C1.8399 6.07015 2.52952 5.19281 3.63538 4.50726L3.01104 3.88293C1.68075 4.7317 0.893188 5.85796 0.893188 6.34355C0.893188 7.18008 3.19467 9.88146 6.50406 9.88146ZM8.53214 7.12295C8.63824 6.88628 8.69536 6.61695 8.69536 6.34355C8.69536 5.12344 7.72009 4.15633 6.50406 4.15633C6.2225 4.15633 5.96134 4.21346 5.72058 4.31139L8.53214 7.12295ZM6.50406 8.53485C6.81419 8.53485 7.108 8.4614 7.37324 8.3349L4.50455 5.46621C4.37397 5.73146 4.3046 6.02934 4.3046 6.34763C4.30868 7.5351 5.27987 8.53485 6.50406 8.53485Z" fill="white" fill-opacity="0.6"/>
</svg>
