<svg width="13" height="13" viewBox="0 0 13 13" fill="none" xmlns="http://www.w3.org/2000/svg">
<path d="M6.49999 9.8117C7.09848 9.8117 7.66071 9.71014 8.16852 9.54691C8.0996 9.24222 8.15038 9.01733 8.31723 8.72353C7.76952 8.9593 7.15652 9.11527 6.49999 9.11527C4.18219 9.11527 2.33956 7.17833 2.33956 6.67051C2.33956 6.24613 4.18219 4.22939 6.49999 4.22939C8.00167 4.22939 9.30021 5.07816 10.0257 5.79272C10.2179 5.56784 10.4863 5.44451 10.7874 5.45902C9.95674 4.54858 8.42968 3.53296 6.49999 3.53296C3.56919 3.53296 1.51617 5.92693 1.51617 6.67051C1.51617 7.4141 3.56556 9.8117 6.49999 9.8117ZM6.49999 8.62559C7.58816 8.62559 8.4587 7.73692 8.4587 6.67051C8.4587 5.57872 7.58816 4.71906 6.49999 4.71906C5.40819 4.71906 4.53403 5.57872 4.54129 6.67051C4.54491 7.73692 5.40819 8.62559 6.49999 8.62559ZM9.17689 9.8117H12.3181C12.6264 9.8117 12.8295 9.58318 12.8295 9.30389C12.8295 9.21683 12.8041 9.13341 12.757 9.05361L11.1864 6.2425C11.0884 6.06839 10.918 5.98497 10.7475 5.98497C10.577 5.98497 10.4029 6.06839 10.3086 6.2425L8.73799 9.05361C8.69084 9.13341 8.66908 9.21683 8.66908 9.30389C8.66908 9.58318 8.86857 9.8117 9.17689 9.8117ZM6.49999 7.30165C6.14815 7.30165 5.86523 7.01873 5.86523 6.67051C5.86523 6.3223 6.14815 6.03938 6.49999 6.03938C6.85183 6.03938 7.13476 6.3223 7.13476 6.67051C7.13476 7.01873 6.85183 7.30165 6.49999 7.30165ZM10.7475 8.37531C10.6096 8.37531 10.5081 8.28101 10.5045 8.14317L10.4754 7.1348C10.4718 6.9752 10.5843 6.86276 10.7475 6.86276C10.9143 6.86276 11.0268 6.97158 11.0232 7.1348L10.9941 8.14317C10.9869 8.28101 10.8889 8.37531 10.7475 8.37531ZM10.7475 9.26036C10.5661 9.26036 10.421 9.1189 10.421 8.93754C10.421 8.7598 10.5661 8.61834 10.7475 8.61834C10.9325 8.61834 11.0776 8.76343 11.0776 8.93754C11.0739 9.1189 10.9325 9.26036 10.7475 9.26036Z" fill="white" fill-opacity="0.6"/>
</svg>
