<svg width="13" height="13" viewBox="0 0 13 13" fill="none" xmlns="http://www.w3.org/2000/svg">
<path d="M6.50406 9.88144C9.85427 9.88144 12.1068 7.18005 12.1068 6.34352C12.1068 5.50699 9.8461 2.80969 6.50406 2.80969C3.20283 2.80969 0.893188 5.50699 0.893188 6.34352C0.893188 7.18005 3.19467 9.88144 6.50406 9.88144ZM6.50406 9.08163C3.90062 9.08163 1.8399 6.91481 1.8399 6.34352C1.8399 5.86609 3.90062 3.6095 6.50406 3.6095C9.09527 3.6095 11.1601 5.86609 11.1601 6.34352C11.1601 6.91481 9.09527 9.08163 6.50406 9.08163ZM6.50406 8.53483C7.72009 8.53483 8.69536 7.53507 8.69536 6.34352C8.69536 5.12341 7.72009 4.1563 6.50406 4.1563C5.27987 4.1563 4.30052 5.12341 4.3046 6.34352C4.31276 7.53507 5.27987 8.53483 6.50406 8.53483ZM6.49998 7.04947C6.10824 7.04947 5.78995 6.73118 5.78995 6.34352C5.78995 5.95586 6.10824 5.63757 6.49998 5.63757C6.89172 5.63757 7.21001 5.95586 7.21001 6.34352C7.21001 6.73118 6.89172 7.04947 6.49998 7.04947Z" fill="white" fill-opacity="0.6"/>
</svg>
