<svg width="13" height="13" viewBox="0 0 13 13" fill="none" xmlns="http://www.w3.org/2000/svg">
<path d="M6.47957 10.5916C6.55302 10.5916 6.6632 10.5671 6.7693 10.51C9.11566 9.23272 9.93179 8.64103 9.93179 7.15567V4.07479C9.93179 3.58512 9.74408 3.40965 9.33194 3.23418C8.88307 3.04239 7.35691 2.51191 6.9162 2.36093C6.77746 2.31604 6.62239 2.28748 6.47957 2.28748C6.34083 2.28748 6.18168 2.3242 6.04702 2.36093C5.60631 2.48743 4.08016 3.04647 3.63129 3.23418C3.21914 3.40557 3.03143 3.58512 3.03143 4.07479V7.15567C3.03143 8.64103 3.84756 9.22456 6.19393 10.51C6.30002 10.5671 6.4102 10.5916 6.47957 10.5916ZM6.47957 9.72648C6.42244 9.72648 6.36531 9.70607 6.24697 9.63262C4.3862 8.4982 3.80675 8.19216 3.80675 7.00469V4.20537C3.80675 4.05847 3.83532 4.00134 3.94958 3.95238C4.55351 3.71162 5.72465 3.32396 6.2633 3.11176C6.35715 3.07912 6.42244 3.06688 6.47957 3.06688C6.54078 3.06688 6.60607 3.07912 6.69993 3.11176C7.23857 3.32396 8.40155 3.7361 9.00957 3.95238C9.1279 3.99726 9.15647 4.05847 9.15647 4.20537V7.00469C9.15647 8.20032 8.55253 8.52269 6.71625 9.63262C6.59791 9.70607 6.54078 9.72648 6.47957 9.72648ZM5.0187 7.75961C5.0187 8.06974 5.15744 8.21256 5.44717 8.21256H7.51605C7.80578 8.21256 7.94452 8.06974 7.94452 7.75961V6.16816C7.94452 5.89068 7.83026 5.74785 7.60175 5.72337V5.26634C7.60175 4.5155 7.1488 4.01358 6.48365 4.01358C5.81443 4.01358 5.36556 4.5155 5.36556 5.26634V5.72337C5.13296 5.74785 5.0187 5.89068 5.0187 6.16816V7.75961ZM5.84707 5.71521V5.22553C5.84707 4.77666 6.10007 4.47878 6.48365 4.47878C6.86723 4.47878 7.12023 4.77666 7.12023 5.22553V5.71521H5.84707Z" fill="white" fill-opacity="0.6"/>
</svg>
