<svg width="13" height="13" viewBox="0 0 13 13" fill="none" xmlns="http://www.w3.org/2000/svg">
<path d="M11.2703 5.84982H10.699C10.4582 3.78094 8.66275 2.12012 6.50001 2.12012C5.30439 2.12012 4.21894 2.64244 3.4681 3.45857C3.26815 3.65444 3.27631 3.9156 3.43953 4.06658C3.60684 4.22164 3.8476 4.22164 4.05163 4.03394C4.65964 3.37695 5.5329 2.96481 6.50001 2.96481C8.22204 2.96481 9.61354 4.22573 9.84613 5.84982H9.2218C8.90759 5.84982 8.82189 6.08241 9.00552 6.33541L9.98079 7.71467C10.1318 7.9187 10.3603 7.92278 10.5072 7.71467L11.4865 6.33949C11.6702 6.08241 11.5886 5.84982 11.2703 5.84982ZM1.72975 6.83325H2.30512C2.54587 8.90213 4.34135 10.563 6.50001 10.563C7.7038 10.563 8.78925 10.0366 9.54008 9.22042C9.73596 9.02455 9.72779 8.76339 9.56457 8.61241C9.39726 8.45734 9.16059 8.45734 8.95247 8.64913C8.35262 9.30612 7.47936 9.71826 6.50001 9.71826C4.78206 9.71826 3.39057 8.45734 3.15797 6.83325H3.77823C4.08836 6.83325 4.17813 6.60066 3.9945 6.34766L3.01515 4.9684C2.86825 4.76437 2.63973 4.76029 2.49283 4.9684L1.51347 6.34358C1.32576 6.60066 1.41146 6.83325 1.72975 6.83325Z" fill="white" fill-opacity="0.6"/>
</svg>
