<svg width="13" height="13" viewBox="0 0 13 13" fill="none" xmlns="http://www.w3.org/2000/svg">
<path d="M2.92538 8.94701L6.15724 10.7507C6.38168 10.8772 6.61019 10.8772 6.83463 10.7507L10.0665 8.94701C10.4623 8.72666 10.6582 8.49814 10.6582 7.92277V4.61338C10.6582 4.18083 10.495 3.90743 10.1277 3.69931L7.25902 2.09154C6.7571 1.80998 6.23886 1.80998 5.73286 2.09154L2.86417 3.69931C2.50099 3.90743 2.33777 4.18083 2.33777 4.61338V7.92277C2.33777 8.49814 2.53364 8.72666 2.92538 8.94701ZM8.40976 4.85005L5.39417 3.16475L6.06339 2.78933C6.3572 2.62203 6.63468 2.61795 6.93257 2.78933L9.50337 4.23796L8.40976 4.85005ZM6.49594 5.91918L3.49259 4.23796L4.61884 3.5973L7.63035 5.2826L6.49594 5.91918ZM3.37425 8.31451C3.14982 8.18801 3.07228 8.06151 3.07228 7.84524V4.8827L6.11236 6.59657V9.86108L3.37425 8.31451ZM9.6217 8.31451L6.87952 9.86108V6.59657L9.91959 4.8827V7.84524C9.91959 8.06151 9.84206 8.18801 9.6217 8.31451Z" fill="white" fill-opacity="0.6"/>
</svg>
