<svg width="13" height="13" viewBox="0 0 13 13" fill="none" xmlns="http://www.w3.org/2000/svg">
<path d="M1.79092 5.50296C1.46855 5.50296 1.38694 5.7478 1.56241 5.98856L2.56216 7.36782C2.69682 7.55961 2.9131 7.55552 3.04368 7.36782L4.04343 5.98448C4.21074 5.75188 4.13321 5.50296 3.81492 5.50296H3.22731C3.59456 4.03802 4.91261 2.96481 6.49998 2.96481C7.58951 2.96889 8.54437 3.47489 9.15647 4.27877C9.32378 4.47056 9.56861 4.53177 9.76857 4.38487C9.95628 4.25021 9.993 3.98497 9.80937 3.76461C9.05854 2.78118 7.81802 2.12012 6.49998 2.12012C4.4719 2.12012 2.75395 3.58507 2.36221 5.50296H1.79092ZM6.34899 3.97681C6.14904 3.97681 5.9899 4.13595 5.9899 4.33182V6.54353C5.9899 6.64146 6.02254 6.73124 6.09191 6.82509L7.06718 8.10641C7.21001 8.2982 7.4222 8.33085 7.59767 8.20435C7.76497 8.08601 7.7813 7.86973 7.65072 7.69427L6.70401 6.42111V4.33182C6.70401 4.13595 6.54486 3.97681 6.34899 3.97681ZM6.49998 10.5589C8.52805 10.5589 10.246 9.09392 10.6377 7.17603H11.209C11.5314 7.17603 11.613 6.93119 11.4375 6.69043L10.4419 5.31117C10.3031 5.12347 10.0869 5.12347 9.95628 5.31117L8.95652 6.69451C8.78921 6.93119 8.86675 7.17603 9.18503 7.17603H9.77673C9.40539 8.64097 8.08734 9.71826 6.49998 9.71826C5.41045 9.71418 4.45558 9.2041 3.84348 8.40022C3.67618 8.20843 3.43542 8.14722 3.23139 8.29412C3.04368 8.42878 3.00695 8.69402 3.19058 8.91846C3.94142 9.89781 5.18193 10.5589 6.49998 10.5589Z" fill="white" fill-opacity="0.6"/>
</svg>
