<svg width="13" height="13" viewBox="0 0 13 13" fill="none" xmlns="http://www.w3.org/2000/svg">
<path d="M3.36608 10.2609H9.63394C10.348 10.2609 10.8051 9.73453 10.8051 9.08571C10.8051 8.88984 10.7561 8.68989 10.65 8.50626L7.50793 3.03005C7.28757 2.63831 6.89583 2.43835 6.50001 2.43835C6.10419 2.43835 5.70837 2.64239 5.48801 3.03005L2.34592 8.51034C2.23982 8.69397 2.19086 8.88984 2.19086 9.08571C2.19086 9.73453 2.65197 10.2609 3.36608 10.2609ZM3.44361 9.47745C3.19061 9.47745 3.02331 9.26934 3.02331 9.0449C3.02331 8.97961 3.03147 8.898 3.07227 8.82455L6.13275 3.46667C6.21436 3.32793 6.35719 3.26264 6.50001 3.26264C6.64283 3.26264 6.78157 3.32793 6.8591 3.46667L9.92366 8.83271C9.96039 8.90208 9.97671 8.97961 9.97671 9.0449C9.97671 9.26934 9.80532 9.47745 9.55232 9.47745H3.44361Z" fill="#FCC539"/>
<path d="M6.85094 7.10343C6.84686 7.34011 6.71628 7.4666 6.49185 7.4666C6.26333 7.4666 6.13275 7.33602 6.12459 7.10343L6.06746 5.13656C6.0593 4.8958 6.23477 4.72442 6.48777 4.72442C6.74077 4.72442 6.92031 4.89988 6.91215 5.14064L6.85094 7.10343Z" fill="#FCC539"/>
<path d="M6.97336 8.36843C6.97336 8.62959 6.75709 8.82138 6.49185 8.82138C6.23069 8.82138 6.01033 8.62551 6.01033 8.36843C6.01033 8.11134 6.22661 7.91956 6.49185 7.91956C6.76117 7.91956 6.97336 8.11134 6.97336 8.36843Z" fill="#FCC539"/>
</svg>
